<?xml version="1.0" encoding="UTF-8" standalone="no"?>
<!DOCTYPE svg PUBLIC "-//W3C//DTD SVG 1.1//EN"
 "http://www.w3.org/Graphics/SVG/1.1/DTD/svg11.dtd">
<!-- Generated by graphviz version 2.38.0 (20140413.2041)
 -->
<!-- Title: %3 Pages: 1 -->
<svg width="293pt" height="463pt"
 viewBox="0.00 0.00 292.61 463.13" xmlns="http://www.w3.org/2000/svg" xmlns:xlink="http://www.w3.org/1999/xlink">
<g id="graph0" class="graph" transform="scale(1 1) rotate(0) translate(4 459.127)">
<title>%3</title>
<polygon fill="white" stroke="none" points="-4,4 -4,-459.127 288.61,-459.127 288.61,4 -4,4"/>
<!-- n1 -->
<g id="node1" class="node"><title>n1</title>
<ellipse fill="none" stroke="black" cx="142.305" cy="-424.014" rx="27" ry="31.2258"/>
<text text-anchor="middle" x="142.305" y="-433.214" font-family="Helvetica,sans-Serif" font-size="11.00">(1)</text>
<text text-anchor="middle" x="142.305" y="-421.214" font-family="Helvetica,sans-Serif" font-size="11.00">root</text>
<text text-anchor="middle" x="142.305" y="-409.214" font-family="Helvetica,sans-Serif" font-size="11.00">root</text>
</g>
<!-- n2 -->
<g id="node2" class="node"><title>n2</title>
<ellipse fill="none" stroke="black" cx="142.305" cy="-325.789" rx="58.8803" ry="31.2258"/>
<text text-anchor="middle" x="142.305" y="-334.989" font-family="Helvetica,sans-Serif" font-size="11.00">(2)</text>
<text text-anchor="middle" x="142.305" y="-322.989" font-family="Helvetica,sans-Serif" font-size="11.00">3+100&lt;EOF&gt;</text>
<text text-anchor="middle" x="142.305" y="-310.989" font-family="Helvetica,sans-Serif" font-size="11.00">s</text>
</g>
<!-- n1&#45;&#45;n2 -->
<g id="edge1" class="edge"><title>n1&#45;&#45;n2</title>
<path fill="none" stroke="black" d="M142.305,-392.832C142.305,-381.478 142.305,-368.569 142.305,-357.195"/>
</g>
<!-- n3 -->
<g id="node3" class="node"><title>n3</title>
<ellipse fill="none" stroke="black" cx="142.305" cy="-227.563" rx="49.4949" ry="31.2258"/>
<text text-anchor="middle" x="142.305" y="-236.763" font-family="Helvetica,sans-Serif" font-size="11.00">(3)</text>
<text text-anchor="middle" x="142.305" y="-224.763" font-family="Helvetica,sans-Serif" font-size="11.00">3+100</text>
<text text-anchor="middle" x="142.305" y="-212.763" font-family="Helvetica,sans-Serif" font-size="11.00">expression</text>
</g>
<!-- n2&#45;&#45;n3 -->
<g id="edge2" class="edge"><title>n2&#45;&#45;n3</title>
<path fill="none" stroke="black" d="M142.305,-294.607C142.305,-283.253 142.305,-270.344 142.305,-258.97"/>
</g>
<!-- n4 -->
<g id="node4" class="node"><title>n4</title>
<ellipse fill="none" stroke="black" cx="40.3051" cy="-129.338" rx="40.1111" ry="31.2258"/>
<text text-anchor="middle" x="40.3051" y="-138.538" font-family="Helvetica,sans-Serif" font-size="11.00">(4)</text>
<text text-anchor="middle" x="40.3051" y="-126.538" font-family="Helvetica,sans-Serif" font-size="11.00">3</text>
<text text-anchor="middle" x="40.3051" y="-114.538" font-family="Helvetica,sans-Serif" font-size="11.00">operand</text>
</g>
<!-- n3&#45;&#45;n4 -->
<g id="edge3" class="edge"><title>n3&#45;&#45;n4</title>
<path fill="none" stroke="black" d="M115.506,-201.281C100.041,-186.692 80.7119,-168.457 65.5227,-154.128"/>
</g>
<!-- n5 -->
<g id="node5" class="node"><title>n5</title>
<ellipse fill="none" stroke="black" cx="142.305" cy="-129.338" rx="43.6818" ry="31.2258"/>
<text text-anchor="middle" x="142.305" y="-138.538" font-family="Helvetica,sans-Serif" font-size="11.00">(5)</text>
<text text-anchor="middle" x="142.305" y="-126.538" font-family="Helvetica,sans-Serif" font-size="11.00">+</text>
<text text-anchor="middle" x="142.305" y="-114.538" font-family="Helvetica,sans-Serif" font-size="11.00">operation</text>
</g>
<!-- n3&#45;&#45;n5 -->
<g id="edge4" class="edge"><title>n3&#45;&#45;n5</title>
<path fill="none" stroke="black" d="M142.305,-196.381C142.305,-185.027 142.305,-172.118 142.305,-160.744"/>
</g>
<!-- n7 -->
<g id="node7" class="node"><title>n7</title>
<ellipse fill="none" stroke="black" cx="244.305" cy="-129.338" rx="40.1111" ry="31.2258"/>
<text text-anchor="middle" x="244.305" y="-138.538" font-family="Helvetica,sans-Serif" font-size="11.00">(7)</text>
<text text-anchor="middle" x="244.305" y="-126.538" font-family="Helvetica,sans-Serif" font-size="11.00">100</text>
<text text-anchor="middle" x="244.305" y="-114.538" font-family="Helvetica,sans-Serif" font-size="11.00">operand</text>
</g>
<!-- n3&#45;&#45;n7 -->
<g id="edge5" class="edge"><title>n3&#45;&#45;n7</title>
<path fill="none" stroke="black" d="M169.104,-201.281C184.569,-186.692 203.898,-168.457 219.088,-154.128"/>
</g>
<!-- n6 -->
<g id="node6" class="node"><title>n6</title>
<ellipse fill="none" stroke="black" cx="142.305" cy="-31.1127" rx="27" ry="31.2258"/>
<text text-anchor="middle" x="142.305" y="-40.3127" font-family="Helvetica,sans-Serif" font-size="11.00">(6)</text>
<text text-anchor="middle" x="142.305" y="-28.3127" font-family="Helvetica,sans-Serif" font-size="11.00">+</text>
<text text-anchor="middle" x="142.305" y="-16.3127" font-family="Helvetica,sans-Serif" font-size="11.00">plus</text>
</g>
<!-- n5&#45;&#45;n6 -->
<g id="edge6" class="edge"><title>n5&#45;&#45;n6</title>
<path fill="none" stroke="black" d="M142.305,-98.1558C142.305,-86.8017 142.305,-73.8931 142.305,-62.5188"/>
</g>
</g>
</svg>
